<?xml version="1.0"?>
<svg xmlns="http://www.w3.org/2000/svg" xmlns:xlink="http://www.w3.org/1999/xlink" xmlns:svgjs="http://svgjs.com/svgjs" version="1.1" width="512" height="512" x="0" y="0" viewBox="0 0 24 24" style="enable-background:new 0 0 512 512" xml:space="preserve"><g><link type="text/css" id="dark-mode" rel="stylesheet"/><style type="text/css" id="dark-mode-custom-style"/><path xmlns="http://www.w3.org/2000/svg" d="M21.46,4.134A4.992,4.992,0,0,0,16.536,0H7.451A4.992,4.992,0,0,0,2.525,4.138l-2.449,14A5,5,0,0,0,5,24H19a5,5,0,0,0,4.925-5.866ZM21.3,20.929A3,3,0,0,1,19,22H5a3,3,0,0,1-2.955-3.518l2.449-14A3,3,0,0,1,7.451,2h9.085A3,3,0,0,1,19.49,4.48l2.463,14A3,3,0,0,1,21.3,20.929ZM13,5V7a1,1,0,0,1-2,0V5a1,1,0,0,1,2,0Zm0,6v2a1,1,0,0,1-2,0V11a1,1,0,0,1,2,0Zm0,6v2a1,1,0,0,1-2,0V17a1,1,0,0,1,2,0Z" fill="#ffffff" data-original="#000000"/></g></svg>
